<svg width="20" height="20" viewBox="0 0 20 20" fill="none" xmlns="http://www.w3.org/2000/svg">
<path d="M12.5 1H5C2.79086 1 1 2.79086 1 5V15C1 17.2091 2.79086 19 5 19H12.5" stroke="#282828"/>
<path d="M19.3536 10.3536C19.5488 10.1583 19.5488 9.84171 19.3536 9.64645L16.1716 6.46447C15.9763 6.2692 15.6597 6.2692 15.4645 6.46447C15.2692 6.65973 15.2692 6.97631 15.4645 7.17157L18.2929 10L15.4645 12.8284C15.2692 13.0237 15.2692 13.3403 15.4645 13.5355C15.6597 13.7308 15.9763 13.7308 16.1716 13.5355L19.3536 10.3536ZM5 10.5H19V9.5H5V10.5Z" fill="#282828"/>
</svg>
